<svg width="0" height="0" class="hidden">
  <symbol xmlns="http://www.w3.org/2000/svg" viewBox="0 0 512 512" id="pause-button">
    <path d="M120.16 45A20.162 20.162 0 0 0 100 65.16v381.68A20.162 20.162 0 0 0 120.16 467h65.68A20.162 20.162 0 0 0 206 446.84V65.16A20.162 20.162 0 0 0 185.84 45h-65.68zm206 0A20.162 20.162 0 0 0 306 65.16v381.68A20.162 20.162 0 0 0 326.16 467h65.68A20.162 20.162 0 0 0 412 446.84V65.16A20.162 20.162 0 0 0 391.84 45h-65.68z"></path>
  </symbol>
  <symbol version="1.1" id="play-button" xmlns="http://www.w3.org/2000/svg" xmlns:xlink="http://www.w3.org/1999/xlink" x="0px" y="0px" xml:space="preserve" viewBox="0 0 460.114 460.114">
    <g>
      <g>
        <path d="M393.538,203.629L102.557,5.543c-9.793-6.666-22.468-7.372-32.94-1.832c-10.472,5.538-17.022,16.413-17.022,28.26v396.173
			c0,11.846,6.55,22.721,17.022,28.26c10.471,5.539,23.147,4.834,32.94-1.832l290.981-198.087
			c8.746-5.954,13.98-15.848,13.98-26.428C407.519,219.477,402.285,209.582,393.538,203.629z"></path>
      </g>
    </g>
    <g></g>
    <g></g>
    <g></g>
    <g></g>
    <g></g>
    <g></g>
    <g></g>
    <g></g>
    <g></g>
    <g></g>
    <g></g>
    <g></g>
    <g></g>
    <g></g>
    <g></g>
  </symbol>
  <symbol version="1.1" id="stop-button" xmlns="http://www.w3.org/2000/svg" xmlns:xlink="http://www.w3.org/1999/xlink" x="0px" y="0px" xml:space="preserve" viewBox="0 0 10.334 10.334">
    <g>
      <path d="M10.333,9.816c0,0.285-0.231,0.518-0.517,0.518H0.517C0.233,10.334,0,10.102,0,9.816V0.517
		C0,0.232,0.231,0,0.517,0h9.299c0.285,0,0.517,0.231,0.517,0.517V9.816z"></path>
    </g>
    <g></g>
    <g></g>
    <g></g>
    <g></g>
    <g></g>
    <g></g>
    <g></g>
    <g></g>
    <g></g>
    <g></g>
    <g></g>
    <g></g>
    <g></g>
    <g></g>
    <g></g>
  </symbol>
  <symbol version="1.1" id="volume" xmlnsX="http://ns.adobe.com/Extensibility/1.0/" xmlnsI="http://ns.adobe.com/AdobeIllustrator/10.0/" xmlnsGraph="http://ns.adobe.com/Graphs/1.0/" xmlns="http://www.w3.org/2000/svg" xmlns:xlink="http://www.w3.org/1999/xlink" x="0px" y="0px" enable-background="new 0 0 24 24" xml:space="preserve" viewBox="0 0 24 24">
    <metadata>
      <sfw xmlns="http://ns.adobe.com/SaveForWeb/1.0/">
        <slices></slices>
        <sliceSourceBounds width="505" height="984" bottomLeftOrigin="true" x="0" y="-984"></sliceSourceBounds>
      </sfw>
    </metadata>
    <g>
      <g>
        <g>
          <path d="M13,23c-0.2,0-0.4-0.1-0.6-0.2l-6-4C6.2,18.6,6,18.3,6,18V6c0-0.3,0.2-0.6,0.4-0.8l6-4c0.3-0.2,0.7-0.2,1,0
				C13.8,1.3,14,1.6,14,2v20c0,0.4-0.2,0.7-0.5,0.9C13.3,23,13.2,23,13,23z M8,17.5l4,2.7V3.9L8,6.5V17.5z"></path>
        </g>
      </g>
      <g>
        <g>
          <path d="M7,19H1c-0.6,0-1-0.4-1-1V6c0-0.6,0.4-1,1-1h6c0.6,0,1,0.4,1,1v12C8,18.6,7.6,19,7,19z M2,17h4V7H2V17z"></path>
        </g>
      </g>
      <g>
        <g>
          <path d="M15.8,15.8c-0.3,0-0.5-0.1-0.7-0.3c-0.4-0.4-0.4-1,0-1.4c0.6-0.6,0.9-1.3,0.9-2.1s-0.3-1.5-0.9-2.1c-0.4-0.4-0.4-1,0-1.4
				c0.4-0.4,1-0.4,1.4,0c1,0.9,1.5,2.2,1.5,3.5s-0.5,2.6-1.5,3.5C16.3,15.7,16.1,15.8,15.8,15.8z"></path>
        </g>
      </g>
      <g>
        <g>
          <path d="M18,18c-0.3,0-0.5-0.1-0.7-0.3c-0.4-0.4-0.4-1,0-1.4c1.1-1.1,1.8-2.6,1.8-4.2s-0.6-3.1-1.8-4.2c-0.4-0.4-0.4-1,0-1.4
				c0.4-0.4,1-0.4,1.4,0C20.2,7.9,21,9.9,21,12s-0.8,4.1-2.3,5.7C18.5,17.9,18.2,18,18,18z"></path>
        </g>
      </g>
      <g>
        <g>
          <path d="M20.1,20.1c-0.3,0-0.5-0.1-0.7-0.3c-0.4-0.4-0.4-1,0-1.4c1.7-1.7,2.6-4,2.6-6.4s-0.9-4.7-2.6-6.4c-0.4-0.4-0.4-1,0-1.4
				c0.4-0.4,1-0.4,1.4,0C22.9,6.3,24,9.1,24,12s-1.1,5.7-3.2,7.8C20.6,20,20.3,20.1,20.1,20.1z"></path>
        </g>
      </g>
    </g>
  </symbol>
</svg>