<svg width="0" height="0" class="hidden">
  <symbol xmlns="http://www.w3.org/2000/svg" viewBox="0 0 512 512" id="pause-button">
    <path d="M120.16 45A20.162 20.162 0 0 0 100 65.16v381.68A20.162 20.162 0 0 0 120.16 467h65.68A20.162 20.162 0 0 0 206 446.84V65.16A20.162 20.162 0 0 0 185.84 45h-65.68zm206 0A20.162 20.162 0 0 0 306 65.16v381.68A20.162 20.162 0 0 0 326.16 467h65.68A20.162 20.162 0 0 0 412 446.84V65.16A20.162 20.162 0 0 0 391.84 45h-65.68z"></path>
  </symbol>
  <symbol version="1.1" id="play-button" xmlns="http://www.w3.org/2000/svg" xmlns:xlink="http://www.w3.org/1999/xlink" x="0px" y="0px" xml:space="preserve" viewBox="0 0 460.114 460.114">
    <g>
      <g>
        <path d="M393.538,203.629L102.557,5.543c-9.793-6.666-22.468-7.372-32.94-1.832c-10.472,5.538-17.022,16.413-17.022,28.26v396.173
			c0,11.846,6.55,22.721,17.022,28.26c10.471,5.539,23.147,4.834,32.94-1.832l290.981-198.087
			c8.746-5.954,13.98-15.848,13.98-26.428C407.519,219.477,402.285,209.582,393.538,203.629z"></path>
      </g>
    </g>
    <g></g>
    <g></g>
    <g></g>
    <g></g>
    <g></g>
    <g></g>
    <g></g>
    <g></g>
    <g></g>
    <g></g>
    <g></g>
    <g></g>
    <g></g>
    <g></g>
    <g></g>
  </symbol>
  <symbol version="1.1" id="stop-button" xmlns="http://www.w3.org/2000/svg" xmlns:xlink="http://www.w3.org/1999/xlink" x="0px" y="0px" xml:space="preserve" viewBox="0 0 10.334 10.334">
    <g>
      <path d="M10.333,9.816c0,0.285-0.231,0.518-0.517,0.518H0.517C0.233,10.334,0,10.102,0,9.816V0.517
		C0,0.232,0.231,0,0.517,0h9.299c0.285,0,0.517,0.231,0.517,0.517V9.816z"></path>
    </g>
    <g></g>
    <g></g>
    <g></g>
    <g></g>
    <g></g>
    <g></g>
    <g></g>
    <g></g>
    <g></g>
    <g></g>
    <g></g>
    <g></g>
    <g></g>
    <g></g>
    <g></g>
  </symbol>
</svg>